<?xml version="1.0" encoding="UTF-8"?>
<svg version="1.1" xmlns="http://www.w3.org/2000/svg" width="3434" height="1248">
<path d="M0 0 C1133.22 0 2266.44 0 3434 0 C3434 411.84 3434 823.68 3434 1248 C2300.78 1248 1167.56 1248 0 1248 C0 836.16 0 424.32 0 0 Z " fill="#FEFEFE" transform="translate(0,0)"/>
<path d="M0 0 C0.75410156 0.61101562 1.50820313 1.22203125 2.28515625 1.8515625 C3.09082031 2.48320312 3.89648438 3.11484375 4.7265625 3.765625 C12.41009819 10.18660787 19.77326108 18.82777215 24.28515625 27.8515625 C25.24180176 27.8609082 26.19844727 27.87025391 27.18408203 27.87988281 C30.80398665 27.92038123 34.42309347 27.98628905 38.04248047 28.05908203 C39.59575999 28.08695073 41.14917236 28.10833091 42.70263672 28.12255859 C68.43224611 28.37203768 90.28041128 38.63405835 108.28515625 56.8515625 C109.39310547 57.94404297 109.39310547 57.94404297 110.5234375 59.05859375 C124.06580295 73.23205973 131.66706313 92.89408323 131.35546875 112.32421875 C131.32066406 113.57525391 131.32066406 113.57525391 131.28515625 114.8515625 C131.9709375 114.95210937 132.65671875 115.05265625 133.36328125 115.15625 C142.88027757 117.42098977 152.07244771 123.38908094 159.28515625 129.8515625 C160.0946875 130.55667969 160.90421875 131.26179687 161.73828125 131.98828125 C171.93694393 141.45176426 184.62337969 159.68491729 186.28515625 173.8515625 C186.30645188 175.40693165 186.3116982 176.96256728 186.3046875 178.51806641 C186.30186768 179.3293399 186.29904785 180.1406134 186.29614258 180.97647095 C186.29070435 181.90464127 186.29070435 181.90464127 186.28515625 182.8515625 C186.91885132 182.83823883 187.55254639 182.82491516 188.20544434 182.81118774 C194.8242556 182.67804392 201.44268413 182.58778472 208.0625 182.52197266 C210.53010521 182.49187202 212.99760405 182.4509814 215.46484375 182.39892578 C219.0197987 182.32581985 222.57333456 182.29203707 226.12890625 182.265625 C227.77312561 182.21917343 227.77312561 182.21917343 229.45056152 182.17178345 C236.00505341 182.16892859 239.82543963 183.07792668 244.86486816 187.36434937 C248.16469251 190.81966393 247.67537847 194.7009401 247.62109375 199.25 C246.43153406 212.00318646 240.40495657 223.80234695 234.28515625 234.8515625 C233.75277344 235.81578125 233.22039063 236.78 232.671875 237.7734375 C227.59822513 246.28407599 220.93171617 253.55393784 214.28515625 260.8515625 C213.58390625 261.62628906 212.88265625 262.40101563 212.16015625 263.19921875 C206.17509392 269.48095443 199.19013134 274.63616185 192.28515625 279.8515625 C191.46168701 280.48215576 191.46168701 280.48215576 190.62158203 281.12548828 C155.96390458 307.54082549 113.93837902 321.53127421 71.48046875 329.06640625 C70.2908252 329.27966553 69.10118164 329.4929248 67.87548828 329.71264648 C65.5474624 330.12692934 63.21776466 330.53196563 60.88623047 330.92602539 C44.04055858 333.90622109 27.74021463 340.53038263 17.2109375 354.62890625 C10.6845799 364.60315088 8.10638222 372.80546498 8.09765625 384.6640625 C8.08541016 385.52837891 8.07316406 386.39269531 8.06054688 387.28320312 C8.03241203 399.70942699 12.36552032 411.23486172 20.28515625 420.8515625 C33.41983864 433.86507624 52.27924377 439.59827482 69.97265625 443.2890625 C76.65075338 444.86973255 80.96437099 448.54302404 84.86122131 454.09841919 C86.4999792 457.26691742 86.67065471 459.26618925 86.68920898 462.81591797 C86.70189316 463.99419159 86.71457733 465.17246521 86.72764587 466.38644409 C86.72324242 468.28343552 86.72324242 468.28343552 86.71875 470.21875 C86.72399185 471.52683624 86.7292337 472.83492249 86.7346344 474.18264771 C86.74355307 476.94819806 86.74115784 479.71345948 86.73120117 482.47900391 C86.71972698 486.00858676 86.73990367 489.5371668 86.76911831 493.06661797 C86.79197096 496.45071354 86.78500935 499.83457928 86.78125 503.21875 C86.79248398 504.47936249 86.80371796 505.73997498 86.81529236 507.03878784 C86.76144494 513.83836153 86.64556674 518.48742152 82.28515625 523.8515625 C77.04414866 528.87337263 72.51513761 529.57488349 65.43774414 529.48266602 C64.47421524 529.48982132 63.51068634 529.49697662 62.51795959 529.50434875 C59.34742146 529.52119386 56.17830578 529.50185547 53.0078125 529.48046875 C50.79495629 529.4812979 48.58210015 529.48375901 46.36924744 529.48777771 C41.73661713 529.49063296 37.10447102 529.47596181 32.47192383 529.44848633 C26.54589574 529.41442461 20.62073437 529.42041808 14.69466496 529.4391489 C10.12630546 529.44973927 5.55814613 529.44076212 0.98980522 529.42576408 C-1.19457975 529.42059546 -3.37898573 529.42104799 -5.56336784 529.42730904 C-8.62204485 529.43278491 -11.67949953 529.41230859 -14.73803711 529.38500977 C-15.63335144 529.39153564 -16.52866577 529.39806152 -17.45111084 529.40478516 C-24.27284461 529.30173018 -29.29764253 527.47966442 -34.7109375 523.31640625 C-35.18660156 522.81238281 -35.66226562 522.30835938 -36.15234375 521.7890625 C-36.72726562 521.18449219 -37.3021875 520.57992187 -37.89453125 519.95703125 C-39.95380659 517.57516557 -41.85148127 515.09239201 -43.77734375 512.6015625 C-52.99553504 501.24649776 -64.31274949 494.33060699 -77.71484375 488.8515625 C-78.94654297 488.31595703 -78.94654297 488.31595703 -80.203125 487.76953125 C-95.61265713 482.13774268 -114.20189799 481.75413651 -129.71484375 486.8515625 C-131.15150391 487.25181641 -131.15150391 487.25181641 -132.6171875 487.66015625 C-145.61646761 491.50357021 -156.16732047 498.33819852 -165.71484375 507.8515625 C-166.52050781 508.64046875 -167.32617188 509.429375 -168.15625 510.2421875 C-171.38397145 513.5339706 -174.43028954 516.98193616 -177.43359375 520.47851562 C-178.11035156 521.23745117 -178.11035156 521.23745117 -178.80078125 522.01171875 C-179.19313965 522.46168213 -179.58549805 522.91164551 -179.98974609 523.37524414 C-186.04896787 528.56065513 -190.90352331 529.44079405 -198.65405273 529.38500977 C-199.62733521 529.39362534 -200.60061768 529.40224091 -201.60339355 529.41111755 C-204.80618224 529.43373605 -208.00809299 529.42704583 -211.2109375 529.41796875 C-213.4462154 529.42320625 -215.68149109 529.42948319 -217.91676331 529.43675232 C-222.59638892 529.44714905 -227.27571031 529.44260542 -231.95532227 529.42797852 C-237.94196514 529.4107948 -243.92764786 529.43428561 -249.91418362 529.46946812 C-254.52885761 529.4914652 -259.1433027 529.4899949 -263.75801277 529.4817028 C-265.9647432 529.48088451 -268.17149063 529.48772452 -270.37817192 529.50247383 C-273.46812224 529.51996119 -276.55635779 529.50534115 -279.64624023 529.48266602 C-280.5509053 529.49435822 -281.45557037 529.50605042 -282.38764954 529.51809692 C-288.64741837 529.42498552 -292.88012336 527.88408512 -297.71484375 523.8515625 C-302.71004171 517.76032793 -302.29826761 511.61994835 -302.24609375 503.98046875 C-302.24992065 502.74417221 -302.25374756 501.50787567 -302.25769043 500.2341156 C-302.26040599 497.62603946 -302.25306996 495.01793593 -302.23632812 492.40991211 C-302.21493404 488.43085597 -302.23613507 484.45360926 -302.26171875 480.47460938 C-302.25907506 477.93489187 -302.25394923 475.39517548 -302.24609375 472.85546875 C-302.25419067 471.67191299 -302.2622876 470.48835724 -302.27062988 469.26893616 C-302.18041215 461.26949814 -300.98786003 455.88521561 -295.92578125 449.64672852 C-290.84356977 445.20722756 -286.23751235 443.3175681 -279.71484375 441.7890625 C-277.85155138 441.30318552 -275.98957406 440.8122391 -274.12890625 440.31640625 C-273.21399414 440.07519043 -272.29908203 439.83397461 -271.35644531 439.58544922 C-254.97611316 435.03468411 -238.29905411 428.15222432 -228.90234375 413.2890625 C-222.21025106 400.88534651 -219.11688962 386.18590216 -222.59765625 372.33984375 C-228.40874306 356.08034588 -238.24304616 344.45140277 -253.71484375 336.8515625 C-265.74701839 331.64334976 -279.29858188 329.91335021 -292.15698242 327.76147461 C-307.39452657 325.18904308 -322.04810679 321.21365319 -336.71484375 316.3515625 C-337.8239209 315.98401855 -338.93299805 315.61647461 -340.07568359 315.23779297 C-351.59750437 311.33743689 -362.5223201 306.65575292 -373.27734375 300.9765625 C-374.79473145 300.17677979 -374.79473145 300.17677979 -376.34277344 299.36083984 C-383.01936548 295.81288716 -389.53460008 292.22108829 -395.71484375 287.8515625 C-396.38370605 287.38588867 -397.05256836 286.92021484 -397.74169922 286.44042969 C-427.17573702 265.84353185 -453.3853264 238.958369 -461.71484375 202.8515625 C-462.3851329 198.01240184 -462.95115144 193.34364729 -460.72265625 188.8515625 C-458.50491224 185.98640254 -456.03573942 184.18579971 -452.71484375 182.8515625 C-450.25970459 182.61105347 -450.25970459 182.61105347 -447.48730469 182.62451172 C-446.44652771 182.62466278 -445.40575073 182.62481384 -444.33343506 182.62496948 C-442.65824799 182.64045334 -442.65824799 182.64045334 -440.94921875 182.65625 C-439.8006842 182.6590799 -438.65214966 182.66190979 -437.46881104 182.66482544 C-433.80071594 182.67601987 -430.13286505 182.70112346 -426.46484375 182.7265625 C-423.97786811 182.73659324 -421.49088864 182.74571892 -419.00390625 182.75390625 C-412.90746877 182.77595682 -406.81117371 182.80942725 -400.71484375 182.8515625 C-400.72467789 182.23976135 -400.73451202 181.62796021 -400.74464417 180.99761963 C-400.75611732 179.78885162 -400.75611732 179.78885162 -400.76782227 178.55566406 C-400.7776564 177.75823792 -400.78749054 176.96081177 -400.79762268 176.13922119 C-400.192154 159.40663375 -385.07930984 140.60509258 -373.27734375 129.4765625 C-355.29337459 113.8515625 -355.29337459 113.8515625 -345.71484375 113.8515625 C-345.80765625 112.335625 -345.80765625 112.335625 -345.90234375 110.7890625 C-345.75282091 89.48205821 -335.4569425 69.38706056 -320.77734375 54.4765625 C-309.91506028 43.86819812 -295.56033397 34.6607744 -280.71484375 30.8515625 C-279.5127124 30.50963867 -278.31058105 30.16771484 -277.07202148 29.81542969 C-272.94023792 28.78616474 -269.01450632 28.69614067 -264.77734375 28.859375 C-263.29039967 28.87804242 -261.80341347 28.89357255 -260.31640625 28.90625 C-258.00980115 28.9327853 -255.7100481 28.97676528 -253.40527344 29.07421875 C-248.28061499 29.27510012 -243.68107079 29.23365431 -238.71484375 27.8515625 C-234.98493638 24.30781142 -233.0243429 20.39086182 -230.71484375 15.8515625 C-218.08218638 -0.70718861 -199.1117307 -11.56815539 -178.71484375 -15.1484375 C-174.12209183 -15.60035664 -169.57821929 -15.72055538 -164.96484375 -15.7109375 C-163.13493896 -15.70731201 -163.13493896 -15.70731201 -161.26806641 -15.70361328 C-151.0533593 -15.49658584 -142.83226423 -13.66542042 -133.71484375 -9.1484375 C-132.79445313 -8.70371094 -131.8740625 -8.25898438 -130.92578125 -7.80078125 C-123.04410215 -3.50964485 -113.71274285 3.35471385 -108.71484375 10.8515625 C-105.51638704 9.46184004 -103.65066239 7.87697026 -101.33984375 5.2890625 C-74.41572829 -22.23559085 -29.96335099 -22.71011911 0 0 Z " fill="#FCFDFC" transform="translate(890.71484375,368.1484375)"/>
<path d="M0 0 C0.75410156 0.61101562 1.50820313 1.22203125 2.28515625 1.8515625 C3.09082031 2.48320312 3.89648438 3.11484375 4.7265625 3.765625 C12.41009819 10.18660787 19.77326108 18.82777215 24.28515625 27.8515625 C25.24180176 27.8609082 26.19844727 27.87025391 27.18408203 27.87988281 C30.80398665 27.92038123 34.42309347 27.98628905 38.04248047 28.05908203 C39.59575999 28.08695073 41.14917236 28.10833091 42.70263672 28.12255859 C68.43224611 28.37203768 90.28041128 38.63405835 108.28515625 56.8515625 C109.39310547 57.94404297 109.39310547 57.94404297 110.5234375 59.05859375 C124.06580295 73.23205973 131.66706313 92.89408323 131.35546875 112.32421875 C131.32066406 113.57525391 131.32066406 113.57525391 131.28515625 114.8515625 C131.9709375 114.95210937 132.65671875 115.05265625 133.36328125 115.15625 C142.88027757 117.42098977 152.07244771 123.38908094 159.28515625 129.8515625 C160.0946875 130.55667969 160.90421875 131.26179687 161.73828125 131.98828125 C171.93694393 141.45176426 184.62337969 159.68491729 186.28515625 173.8515625 C186.30645188 175.40693165 186.3116982 176.96256728 186.3046875 178.51806641 C186.30186768 179.3293399 186.29904785 180.1406134 186.29614258 180.97647095 C186.29070435 181.90464127 186.29070435 181.90464127 186.28515625 182.8515625 C186.91885132 182.83823883 187.55254639 182.82491516 188.20544434 182.81118774 C194.8242556 182.67804392 201.44268413 182.58778472 208.0625 182.52197266 C210.53010521 182.49187202 212.99760405 182.4509814 215.46484375 182.39892578 C219.0197987 182.32581985 222.57333456 182.29203707 226.12890625 182.265625 C227.77312561 182.21917343 227.77312561 182.21917343 229.45056152 182.17178345 C236.00505341 182.16892859 239.82543963 183.07792668 244.86486816 187.36434937 C248.16469251 190.81966393 247.67537847 194.7009401 247.62109375 199.25 C246.43153406 212.00318646 240.40495657 223.80234695 234.28515625 234.8515625 C233.75277344 235.81578125 233.22039063 236.78 232.671875 237.7734375 C227.59822513 246.28407599 220.93171617 253.55393784 214.28515625 260.8515625 C213.58390625 261.62628906 212.88265625 262.40101563 212.16015625 263.19921875 C206.17509392 269.48095443 199.19013134 274.63616185 192.28515625 279.8515625 C191.46168701 280.48215576 191.46168701 280.48215576 190.62158203 281.12548828 C155.96390458 307.54082549 113.93837902 321.53127421 71.48046875 329.06640625 C70.2908252 329.27966553 69.10118164 329.4929248 67.87548828 329.71264648 C65.5474624 330.12692934 63.21776466 330.53196563 60.88623047 330.92602539 C44.04055858 333.90622109 27.74021463 340.53038263 17.2109375 354.62890625 C10.6845799 364.60315088 8.10638222 372.80546498 8.09765625 384.6640625 C8.08541016 385.52837891 8.07316406 386.39269531 8.06054688 387.28320312 C8.03241203 399.70942699 12.36552032 411.23486172 20.28515625 420.8515625 C33.41983864 433.86507624 52.27924377 439.59827482 69.97265625 443.2890625 C76.65075338 444.86973255 80.96437099 448.54302404 84.86122131 454.09841919 C86.4999792 457.26691742 86.67065471 459.26618925 86.68920898 462.81591797 C86.70189316 463.99419159 86.71457733 465.17246521 86.72764587 466.38644409 C86.72324242 468.28343552 86.72324242 468.28343552 86.71875 470.21875 C86.72399185 471.52683624 86.7292337 472.83492249 86.7346344 474.18264771 C86.74355307 476.94819806 86.74115784 479.71345948 86.73120117 482.47900391 C86.71972698 486.00858676 86.73990367 489.5371668 86.76911831 493.06661797 C86.79197096 496.45071354 86.78500935 499.83457928 86.78125 503.21875 C86.79248398 504.47936249 86.80371796 505.73997498 86.81529236 507.03878784 C86.76144494 513.83836153 86.64556674 518.48742152 82.28515625 523.8515625 C77.04414866 528.87337263 72.51513761 529.57488349 65.43774414 529.48266602 C64.47421524 529.48982132 63.51068634 529.49697662 62.51795959 529.50434875 C59.34742146 529.52119386 56.17830578 529.50185547 53.0078125 529.48046875 C50.79495629 529.4812979 48.58210015 529.48375901 46.36924744 529.48777771 C41.73661713 529.49063296 37.10447102 529.47596181 32.47192383 529.44848633 C26.54589574 529.41442461 20.62073437 529.42041808 14.69466496 529.4391489 C10.12630546 529.44973927 5.55814613 529.44076212 0.98980522 529.42576408 C-1.19457975 529.42059546 -3.37898573 529.42104799 -5.56336784 529.42730904 C-8.62204485 529.43278491 -11.67949953 529.41230859 -14.73803711 529.38500977 C-15.63335144 529.39153564 -16.52866577 529.39806152 -17.45111084 529.40478516 C-24.27284461 529.30173018 -29.29764253 527.47966442 -34.7109375 523.31640625 C-35.18660156 522.81238281 -35.66226562 522.30835938 -36.15234375 521.7890625 C-36.72726562 521.18449219 -37.3021875 520.57992187 -37.89453125 519.95703125 C-39.95380659 517.57516557 -41.85148127 515.09239201 -43.77734375 512.6015625 C-52.99553504 501.24649776 -64.31274949 494.33060699 -77.71484375 488.8515625 C-78.94654297 488.31595703 -78.94654297 488.31595703 -80.203125 487.76953125 C-95.61265713 482.13774268 -114.20189799 481.75413651 -129.71484375 486.8515625 C-131.15150391 487.25181641 -131.15150391 487.25181641 -132.6171875 487.66015625 C-145.61646761 491.50357021 -156.16732047 498.33819852 -165.71484375 507.8515625 C-166.52050781 508.64046875 -167.32617188 509.429375 -168.15625 510.2421875 C-171.38397145 513.5339706 -174.43028954 516.98193616 -177.43359375 520.47851562 C-178.11035156 521.23745117 -178.11035156 521.23745117 -178.80078125 522.01171875 C-179.19313965 522.46168213 -179.58549805 522.91164551 -179.98974609 523.37524414 C-186.04896787 528.56065513 -190.90352331 529.44079405 -198.65405273 529.38500977 C-199.62733521 529.39362534 -200.60061768 529.40224091 -201.60339355 529.41111755 C-204.80618224 529.43373605 -208.00809299 529.42704583 -211.2109375 529.41796875 C-213.4462154 529.42320625 -215.68149109 529.42948319 -217.91676331 529.43675232 C-222.59638892 529.44714905 -227.27571031 529.44260542 -231.95532227 529.42797852 C-237.94196514 529.4107948 -243.92764786 529.43428561 -249.91418362 529.46946812 C-254.52885761 529.4914652 -259.1433027 529.4899949 -263.75801277 529.4817028 C-265.9647432 529.48088451 -268.17149063 529.48772452 -270.37817192 529.50247383 C-273.46812224 529.51996119 -276.55635779 529.50534115 -279.64624023 529.48266602 C-280.5509053 529.49435822 -281.45557037 529.50605042 -282.38764954 529.51809692 C-288.64741837 529.42498552 -292.88012336 527.88408512 -297.71484375 523.8515625 C-302.71004171 517.76032793 -302.29826761 511.61994835 -302.24609375 503.98046875 C-302.24992065 502.74417221 -302.25374756 501.50787567 -302.25769043 500.2341156 C-302.26040599 497.62603946 -302.25306996 495.01793593 -302.23632812 492.40991211 C-302.21493404 488.43085597 -302.23613507 484.45360926 -302.26171875 480.47460938 C-302.25907506 477.93489187 -302.25394923 475.39517548 -302.24609375 472.85546875 C-302.25419067 471.67191299 -302.2622876 470.48835724 -302.27062988 469.26893616 C-302.18041215 461.26949814 -300.98786003 455.88521561 -295.92578125 449.64672852 C-290.84356977 445.20722756 -286.23751235 443.3175681 -279.71484375 441.7890625 C-277.85155138 441.30318552 -275.98957406 440.8122391 -274.12890625 440.31640625 C-273.21399414 440.07519043 -272.29908203 439.83397461 -271.35644531 439.58544922 C-254.97611316 435.03468411 -238.29905411 428.15222432 -228.90234375 413.2890625 C-222.21025106 400.88534651 -219.11688962 386.18590216 -222.59765625 372.33984375 C-228.40874306 356.08034588 -238.24304616 344.45140277 -253.71484375 336.8515625 C-265.74701839 331.64334976 -279.29858188 329.91335021 -292.15698242 327.76147461 C-307.39452657 325.18904308 -322.04810679 321.21365319 -336.71484375 316.3515625 C-337.8239209 315.98401855 -338.93299805 315.61647461 -340.07568359 315.23779297 C-351.59750437 311.33743689 -362.5223201 306.65575292 -373.27734375 300.9765625 C-374.79473145 300.17677979 -374.79473145 300.17677979 -376.34277344 299.36083984 C-383.01936548 295.81288716 -389.53460008 292.22108829 -395.71484375 287.8515625 C-396.38370605 287.38588867 -397.05256836 286.92021484 -397.74169922 286.44042969 C-427.17573702 265.84353185 -453.3853264 238.958369 -461.71484375 202.8515625 C-462.3851329 198.01240184 -462.95115144 193.34364729 -460.72265625 188.8515625 C-458.50491224 185.98640254 -456.03573942 184.18579971 -452.71484375 182.8515625 C-450.25970459 182.61105347 -450.25970459 182.61105347 -447.48730469 182.62451172 C-446.44652771 182.62466278 -445.40575073 182.62481384 -444.33343506 182.62496948 C-442.65824799 182.64045334 -442.65824799 182.64045334 -440.94921875 182.65625 C-439.8006842 182.6590799 -438.65214966 182.66190979 -437.46881104 182.66482544 C-433.80071594 182.67601987 -430.13286505 182.70112346 -426.46484375 182.7265625 C-423.97786811 182.73659324 -421.49088864 182.74571892 -419.00390625 182.75390625 C-412.90746877 182.77595682 -406.81117371 182.80942725 -400.71484375 182.8515625 C-400.72467789 182.23976135 -400.73451202 181.62796021 -400.74464417 180.99761963 C-400.75611732 179.78885162 -400.75611732 179.78885162 -400.76782227 178.55566406 C-400.7776564 177.75823792 -400.78749054 176.96081177 -400.79762268 176.13922119 C-400.192154 159.40663375 -385.07930984 140.60509258 -373.27734375 129.4765625 C-355.29337459 113.8515625 -355.29337459 113.8515625 -345.71484375 113.8515625 C-345.80765625 112.335625 -345.80765625 112.335625 -345.90234375 110.7890625 C-345.75282091 89.48205821 -335.4569425 69.38706056 -320.77734375 54.4765625 C-309.91506028 43.86819812 -295.56033397 34.6607744 -280.71484375 30.8515625 C-279.5127124 30.50963867 -278.31058105 30.16771484 -277.07202148 29.81542969 C-272.94023792 28.78616474 -269.01450632 28.69614067 -264.77734375 28.859375 C-263.29039967 28.87804242 -261.80341347 28.89357255 -260.31640625 28.90625 C-258.00980115 28.9327853 -255.7100481 28.97676528 -253.40527344 29.07421875 C-248.28061499 29.27510012 -243.68107079 29.23365431 -238.71484375 27.8515625 C-234.98493638 24.30781142 -233.0243429 20.39086182 -230.71484375 15.8515625 C-218.08218638 -0.70718861 -199.1117307 -11.56815539 -178.71484375 -15.1484375 C-174.12209183 -15.60035664 -169.57821929 -15.72055538 -164.96484375 -15.7109375 C-163.13493896 -15.70731201 -163.13493896 -15.70731201 -161.26806641 -15.70361328 C-151.0533593 -15.49658584 -142.83226423 -13.66542042 -133.71484375 -9.1484375 C-132.79445313 -8.70371094 -131.8740625 -8.25898438 -130.92578125 -7.80078125 C-123.04410215 -3.50964485 -113.71274285 3.35471385 -108.71484375 10.8515625 C-105.51638704 9.46184004 -103.65066239 7.87697026 -101.33984375 5.2890625 C-74.41572829 -22.23559085 -29.96335099 -22.71011911 0 0 Z M-205.71484375 28.8515625 C-209.70310918 33.72770031 -214.01360818 39.17007578 -215.21484375 45.4765625 C-213.86545154 54.58495995 -206.659975 62.25687344 -199.71484375 67.8515625 C-192.16341167 72.820752 -184.65631677 74.77994585 -175.8671875 76.11328125 C-172.65375693 76.86586908 -171.76334143 77.41351444 -169.71484375 79.8515625 C-169.05484375 79.8515625 -168.39484375 79.8515625 -167.71484375 79.8515625 C-165.35051007 84.432459 -165.12822801 88.81033349 -165.71484375 93.8515625 C-167.48109681 98.12775413 -169.63382299 99.80246652 -173.71484375 101.8515625 C-188.9659854 104.21608059 -203.78922458 97.61757942 -216.14453125 89.1953125 C-225.03226247 82.61180789 -230.45066792 75.10994144 -235.51953125 65.39868164 C-238.20139359 60.30303016 -238.20139359 60.30303016 -242.71484375 56.8515625 C-255.93007098 52.8685759 -273.66072127 55.72913637 -285.71484375 61.8515625 C-289.22315237 63.97928671 -292.48015022 66.32994837 -295.71484375 68.8515625 C-296.50117187 69.46 -297.2875 70.0684375 -298.09765625 70.6953125 C-307.43192207 78.41585779 -315.48442344 90.7603366 -317.71484375 102.8515625 C-317.78108882 104.60043231 -317.8003697 106.35158998 -317.77734375 108.1015625 C-317.76832031 108.99359375 -317.75929688 109.885625 -317.75 110.8046875 C-317.73839844 111.48015625 -317.72679687 112.155625 -317.71484375 112.8515625 C-316.60109375 113.05910156 -315.48734375 113.26664062 -314.33984375 113.48046875 C-306.22850372 115.08234437 -298.50574013 116.99264195 -290.90234375 120.2890625 C-290.25201172 120.56500244 -289.60167969 120.84094238 -288.93164062 121.12524414 C-284.16776338 123.29410798 -280.10333535 126.07457929 -277.71484375 130.8515625 C-277.35329621 136.36516254 -277.45222179 139.22951472 -280.71484375 143.8515625 C-280.71484375 144.5115625 -280.71484375 145.1715625 -280.71484375 145.8515625 C-286.57392994 148.13803516 -291.69258279 148.90908573 -297.58203125 146.390625 C-298.92264178 145.7624825 -300.2585047 145.12412402 -301.58984375 144.4765625 C-313.6637846 138.93738703 -326.73860483 136.10620652 -339.71484375 140.8515625 C-354.58889806 147.64588361 -363.96882946 156.74175217 -371.4765625 171.2578125 C-372.54790123 174.36706055 -372.8567401 175.9295272 -372.79223633 179.07617188 C-372.76669678 180.32205078 -372.74115723 181.56792969 -372.71484375 182.8515625 C-359.76300535 183.01370011 -346.81140806 183.13810566 -333.85876179 183.2142477 C-327.84436022 183.25079109 -321.83065256 183.30036342 -315.81665039 183.37963867 C-310.01350773 183.45565633 -304.21103275 183.49754445 -298.40743065 183.5157032 C-296.19254225 183.52864474 -293.97769071 183.55391707 -291.76308632 183.5916729 C-288.66197177 183.64244322 -285.56362098 183.64948817 -282.4621582 183.64624023 C-281.54506073 183.67140717 -280.62796326 183.6965741 -279.68307495 183.72250366 C-274.92701846 183.74210507 -274.92701846 183.74210507 -271.07387352 181.27491951 C-269.71066601 179.40543227 -269.71066601 179.40543227 -268.66122723 177.45253086 C-267.71484375 175.8515625 -267.71484375 175.8515625 -265.71484375 174.8515625 C-265.71484375 174.1915625 -265.71484375 173.5315625 -265.71484375 172.8515625 C-265.15539062 172.59632813 -264.5959375 172.34109375 -264.01953125 172.078125 C-261.4031947 170.68570182 -259.1963808 169.02440688 -256.83984375 167.2265625 C-241.41163057 155.94659737 -220.62059736 144.83156519 -200.90625 145.49609375 C-196.53063557 146.20586365 -193.918554 148.68797592 -190.83984375 151.6640625 C-189.17325576 154.90465026 -189.266906 157.26806051 -189.71484375 160.8515625 C-191.95971732 163.81800258 -194.28222038 165.4935381 -197.71484375 166.8515625 C-200.16842385 167.04897699 -202.62913694 167.16371537 -205.08984375 167.2265625 C-219.98369659 167.91795334 -231.49042614 172.28267033 -242.02734375 182.9765625 C-252.39616334 195.84584748 -251.38497929 209.82665539 -251.203125 225.52734375 C-251.19378455 227.9077225 -251.18667427 230.28811095 -251.1816864 232.66850281 C-251.16271384 238.89439028 -251.11369732 245.11968252 -251.0581665 251.34533691 C-251.00676307 257.71386669 -250.98412748 264.08249386 -250.95898438 270.45117188 C-250.9055689 282.91822842 -250.82037505 295.38484571 -250.71484375 307.8515625 C-250.16611603 308.13550873 -249.61738831 308.41945496 -249.05203247 308.71200562 C-246.54436242 310.01243703 -244.0397535 311.31866093 -241.53515625 312.625 C-240.24025269 313.29486938 -240.24025269 313.29486938 -238.91918945 313.97827148 C-232.98512304 317.0803637 -227.7307761 320.39295596 -222.71484375 324.8515625 C-221.98523438 325.4290625 -221.255625 326.0065625 -220.50390625 326.6015625 C-210.50546923 334.79140852 -203.792514 346.09112258 -198.71484375 357.8515625 C-198.30105469 358.75132812 -197.88726563 359.65109375 -197.4609375 360.578125 C-190.79384865 377.81498886 -193.4697563 400.16898387 -199.96484375 417.0390625 C-209.28040299 437.88158971 -225.69011612 452.32711364 -246.71484375 460.8515625 C-252.85832541 463.11452051 -259.08224746 465.13322769 -265.328125 467.09301758 C-268.13279621 467.9843958 -270.92295153 468.92093176 -273.71484375 469.8515625 C-273.71484375 480.0815625 -273.71484375 490.3115625 -273.71484375 500.8515625 C-263.9439154 501.05529764 -254.17440844 501.22023241 -244.40183258 501.31787205 C-239.86343677 501.36474668 -235.32657525 501.42826694 -230.7890625 501.53051758 C-226.40578769 501.62866876 -222.02398348 501.68219325 -217.63969421 501.70545769 C-215.97141879 501.72202456 -214.30321952 501.75437934 -212.63557434 501.80313301 C-203.3388667 502.30181082 -203.3388667 502.30181082 -194.99194336 498.90890503 C-192.98811286 496.6541365 -191.37613075 494.36241722 -189.71484375 491.8515625 C-187.17377043 489.36455415 -184.44005029 487.13368476 -181.71484375 484.8515625 C-180.85375 484.07941406 -179.99265625 483.30726563 -179.10546875 482.51171875 C-155.15945837 461.51042046 -125.159035 454.13980824 -93.89453125 456.08984375 C-64.79706126 459.49486683 -38.79074223 474.97038522 -20.08984375 497.22265625 C-18.661988 498.96056827 -18.661988 498.96056827 -16.71484375 500.8515625 C-14.27547321 501.03925768 -11.95069647 501.10354855 -9.51123047 501.07861328 C-8.76966705 501.07890533 -8.02810364 501.07919739 -7.2640686 501.07949829 C-4.80743804 501.07810244 -2.35110897 501.06252948 0.10546875 501.046875 C1.80654739 501.04314577 3.50762817 501.04029837 5.20870972 501.03829956 C9.69026601 501.03065599 14.17169308 501.01100134 18.65319824 500.9888916 C23.22451021 500.96844872 27.79584302 500.95930118 32.3671875 500.94921875 C41.33990972 500.92775607 50.31250203 500.89256809 59.28515625 500.8515625 C59.28515625 490.6215625 59.28515625 480.3915625 59.28515625 469.8515625 C53.84015625 468.3665625 53.84015625 468.3665625 48.28515625 466.8515625 C45.58655622 465.89308538 42.93991742 464.91293958 40.28515625 463.8515625 C39.20161865 463.43535645 39.20161865 463.43535645 38.09619141 463.01074219 C27.13908453 458.77545732 17.52657605 454.16445072 8.28515625 446.8515625 C7.05925781 445.89830078 7.05925781 445.89830078 5.80859375 444.92578125 C-8.91162137 432.70952025 -17.52707489 415.66569313 -19.71484375 396.8515625 C-20.71335888 383.56445457 -20.9903677 370.2856586 -15.71484375 357.8515625 C-15.32014893 356.90410156 -15.32014893 356.90410156 -14.91748047 355.9375 C-5.92482121 334.84775468 10.16898811 319.72575155 31.28515625 310.8515625 C45.15110706 305.60165378 59.57420989 302.93023172 74.12359619 300.41760254 C86.1141356 298.34452147 97.73330429 295.72064993 109.28515625 291.8515625 C110.0745459 291.58762695 110.86393555 291.32369141 111.67724609 291.05175781 C138.67033129 281.86192161 163.3853809 269.2570609 185.28515625 250.8515625 C186.57679688 249.84416016 186.57679688 249.84416016 187.89453125 248.81640625 C190.05289552 247.04245653 191.80003842 245.291764 193.59765625 243.1640625 C195.4330307 240.99895628 197.2649366 238.87263478 199.23046875 236.82421875 C206.35354036 229.32404335 211.53227871 220.47610839 215.28515625 210.8515625 C214.42485998 210.84917415 213.56456371 210.84678579 212.67819786 210.84432507 C191.74624807 210.78519164 170.81441357 210.70965214 149.88258934 210.61584759 C139.76011572 210.57088013 129.63767736 210.53146763 119.51513672 210.50512695 C110.69243241 210.4821546 101.86983959 210.44876507 93.04722369 210.40286094 C88.37561616 210.37891847 83.70411912 210.36019639 79.03245163 210.35394859 C74.63458691 210.34790239 70.23700492 210.32791933 65.83924484 210.29728699 C64.22600263 210.28849932 62.61272349 210.28478569 60.99945831 210.28655434 C58.79418369 210.28820854 56.5897695 210.27149662 54.38461304 210.25028992 C53.15125402 210.24568095 51.91789501 210.24107199 50.64716148 210.23632336 C45.80226429 209.68185462 42.50095524 208.08463749 39.0859375 204.62109375 C37.00007217 201.41311431 35.73203622 198.12282864 34.47265625 194.5390625 C30.99234265 185.26759704 25.53455722 178.01117584 16.48828125 173.4375 C7.61077134 169.79725123 0.25032479 167.90948473 -9.33984375 167.4765625 C-15.31418761 167.14665395 -19.00311865 166.55363222 -23.71484375 162.8515625 C-25.14788439 159.98548121 -25.0212853 158.03855467 -24.71484375 154.8515625 C-22.42745409 150.53093759 -20.32404736 147.61678941 -15.71484375 145.8515625 C-5.9895916 144.27449458 3.20219745 147.78986658 12.28515625 150.8515625 C13.4246875 151.22410156 14.56421875 151.59664062 15.73828125 151.98046875 C27.47025431 156.1271144 37.87677986 162.53483113 47.41015625 170.4765625 C47.93029297 170.90727051 48.45042969 171.33797852 48.98632812 171.78173828 C51.72037593 174.15392682 53.59930146 176.36296644 55.35124207 179.47523499 C56.90853452 181.66994753 57.74101405 182.68287229 60.33300209 183.48641777 C62.92390404 183.71457455 65.43231683 183.71759349 68.0324707 183.64624023 C69.49660149 183.64777351 69.49660149 183.64777351 70.99031067 183.64933777 C74.21080148 183.64446782 77.42844322 183.59005253 80.6484375 183.53515625 C82.88330028 183.522098 85.11818313 183.51213491 87.35307312 183.50514221 C93.23083981 183.478435 99.1073926 183.40968747 104.98468018 183.33221436 C110.98376036 183.26056388 116.983037 183.22862672 122.98242188 183.19335938 C134.75053289 183.11832088 146.51774357 182.99887288 158.28515625 182.8515625 C158.31405179 181.24961826 158.33467974 179.64752344 158.35180664 178.04541016 C158.36417862 177.15326813 158.3765506 176.2611261 158.38929749 175.34194946 C158.05026949 167.23458561 150.97865612 159.20578491 145.28515625 153.8515625 C132.406749 142.7675342 120.16180302 137.8972809 103.28515625 138.8515625 C96.69792755 139.80063819 91.3307517 141.67086892 85.59765625 145.0390625 C80.72330844 147.85550843 76.86897695 149.1334513 71.28515625 147.8515625 C67.20108391 145.7723984 64.9600767 144.09622391 63.28515625 139.8515625 C62.73333044 134.86078494 62.4530631 129.16713302 65.28515625 124.8515625 C66.93448518 124.14308787 68.60459191 123.48237605 70.28515625 122.8515625 C71.93289253 122.06386418 73.5786309 121.27197692 75.22265625 120.4765625 C84.48916407 116.24973437 94.12026092 113.55258976 104.28515625 112.8515625 C104.67197715 98.73259952 98.51942316 86.55878569 89.38671875 76.015625 C83.36981303 69.81977785 76.87508615 65.3902236 69.22265625 61.4765625 C68.57425781 61.14253418 67.92585938 60.80850586 67.2578125 60.46435547 C59.23831725 56.55324119 51.44984455 55.51637705 42.59765625 55.6015625 C41.78232422 55.59382813 40.96699219 55.58609375 40.12695312 55.578125 C34.07487565 55.59769518 29.46987758 56.05029521 24.63671875 60.03515625 C22.06151445 63.11941257 20.32056252 66.28961086 18.66015625 69.9140625 C15.60229108 76.44990496 15.60229108 76.44990496 13.51171875 79.09765625 C13.10695313 79.67644531 12.7021875 80.25523437 12.28515625 80.8515625 C13.39474028 84.1803146 14.21060129 84.86645949 16.84765625 87.0390625 C31.42784234 99.46893337 31.42784234 99.46893337 32.59375 106.7890625 C32.91318091 111.89995701 31.68493205 114.8851574 28.28515625 118.8515625 C24.06470107 121.44400143 20.10389685 121.38023728 15.28515625 120.8515625 C11.45522209 119.42647072 9.78025594 117.26600004 7.47265625 114.0390625 C2.77245545 107.48288498 -3.14003087 103.56528051 -10.71484375 100.8515625 C-13.4821756 100.50359074 -16.18043722 100.51844589 -18.96484375 100.6015625 C-19.67125 100.60671875 -20.37765625 100.611875 -21.10546875 100.6171875 C-24.22473956 100.66444918 -26.73789662 100.85924679 -29.71484375 101.8515625 C-32.16935709 102.02366056 -34.62973293 102.11814688 -37.08984375 102.1640625 C-38.39695312 102.20144531 -39.7040625 102.23882812 -41.05078125 102.27734375 C-45.23127131 101.79155119 -46.77090222 100.77911845 -49.71484375 97.8515625 C-52.23954652 94.36506819 -52.07711304 91.05388625 -51.71484375 86.8515625 C-50.29637175 82.83255851 -48.54908435 79.90780865 -44.8359375 77.6484375 C-40.81140201 76.13645731 -36.4950725 75.91679569 -32.25 75.39453125 C-21.11420718 73.68417191 -12.02142245 67.44171576 -5 58.73828125 C-1.37723616 53.41975561 0.90856657 48.3682784 0.28515625 41.8515625 C-6.20081571 27.99247955 -18.23030719 18.92334765 -32.26806641 13.51391602 C-44.71797955 9.13757314 -56.62062097 9.59049776 -68.71484375 14.8515625 C-79.92233018 20.98786004 -88.23867444 30.69456654 -92.76074219 42.60668945 C-94.2593729 47.98528907 -93.99501591 53.53419261 -93.98923874 59.07562447 C-93.98826471 61.14053013 -94.00131586 63.20492766 -94.01821899 65.26976013 C-94.06424043 71.13544902 -94.08910214 77.00107976 -94.09570312 82.86694336 C-94.1007294 86.46733717 -94.12502532 90.06719151 -94.16102982 93.66740227 C-94.17079299 95.03283379 -94.1731788 96.39833979 -94.16785812 97.76379585 C-94.11842468 111.06601396 -94.11842468 111.06601396 -98.71484375 115.8515625 C-102.97305766 118.69037177 -106.7182312 118.36321563 -111.71484375 117.8515625 C-116.01236475 116.11426678 -117.66365495 113.93947201 -119.71484375 109.8515625 C-120.07992554 106.90808105 -120.07992554 106.90808105 -120.06787109 103.61523438 C-120.07152679 102.3762439 -120.0751825 101.13725342 -120.07894897 99.86071777 C-120.07414898 99.20302902 -120.06934898 98.54534027 -120.06440353 97.86772156 C-120.05056846 95.78833116 -120.05716153 93.70988532 -120.06924438 91.63049316 C-120.10005033 85.72072071 -120.09551117 79.81116959 -120.07519531 73.90136719 C-120.06415724 70.27728479 -120.07772681 66.65390754 -120.10509109 63.02992249 C-120.11304834 61.00459526 -120.09336295 58.97921842 -120.07284546 56.95397949 C-120.17220512 44.342435 -123.33560472 34.20747001 -132.24609375 25.07421875 C-143.03077965 15.36458857 -153.56583234 10.34391346 -168.08984375 10.60546875 C-182.91465931 11.61189481 -195.15933425 18.62335562 -205.71484375 28.8515625 Z " fill="#040504" transform="translate(890.71484375,368.1484375)"/>
<path d="M0 0 C0 -3.63 0 -7.26 0 -11 C13.86 -11 27.72 -11 42 -11 C42.06791978 6.86429462 42.12309925 24.72847773 42.15543652 42.59286594 C42.17085542 50.88902497 42.19184882 59.18509762 42.22631836 67.48120117 C42.25637412 74.71849869 42.27561109 81.9557336 42.28226548 89.19309181 C42.28615057 93.01941209 42.29517501 96.84555339 42.31719017 100.67181587 C42.33781213 104.28580414 42.34378297 107.89954262 42.33932304 111.51358414 C42.34051999 113.44661425 42.35652574 115.37961825 42.3732605 117.31257629 C42.2992452 138.67344432 35.96858239 156.58640429 21.25 172.25 C5.15818075 187.79884376 -15.75010636 191.54607874 -37.29833984 191.41699219 C-58.56046764 190.9307545 -77.31472671 183.76568706 -92.46484375 168.51953125 C-103 157.23308347 -103 157.23308347 -103 152 C-102.26475098 151.60731934 -101.52950195 151.21463867 -100.77197266 150.81005859 C-97.9938712 149.32476727 -95.21701025 147.83718727 -92.44091797 146.34814453 C-90.66856363 145.39834561 -88.89484521 144.45109348 -87.12109375 143.50390625 C-80.95740526 140.19571186 -74.90426598 136.81022409 -69.00146484 133.05322266 C-67 132 -67 132 -64 132 C-62.640625 133.9765625 -62.640625 133.9765625 -61.25 136.625 C-57.02787419 143.95163008 -52.01030647 148.39549169 -44.00390625 151.3046875 C-34.28725472 153.5537954 -23.69979323 153.15543302 -15 148 C-7.56705428 143.31782947 -3.95939231 136.45301314 -2.02734375 128.01953125 C-1.25747641 124.36093907 -0.60502364 120.68916851 0 117 C-0.64324219 117.51949219 -1.28648437 118.03898438 -1.94921875 118.57421875 C-15.72565414 129.20624663 -30.83587334 132.92978802 -48.10644531 130.73193359 C-67.19928249 127.62308148 -81.90827126 118.27677848 -93.875 103.0625 C-103.83405021 89.10204569 -106.24133625 75.19149964 -106.375 58.375 C-106.38893799 57.24320313 -106.40287598 56.11140625 -106.41723633 54.9453125 C-106.35700963 44.18272255 -104.30686833 34.436107 -99.3125 24.875 C-98.96437256 24.19759766 -98.61624512 23.52019531 -98.25756836 22.82226562 C-89.29065174 5.90066358 -74.13043471 -6.56748318 -55.8515625 -12.30859375 C-35.23256388 -17.30799479 -16.53366248 -12.9907348 0 0 Z " fill="#030303" transform="translate(2813,563)"/>
<path d="M0 0 C1.16466797 -0.02900391 2.32933594 -0.05800781 3.52929688 -0.08789062 C15.77830054 -0.17660207 25.15284813 3.04152727 34.9375 10.3125 C35.9275 10.9725 36.9175 11.6325 37.9375 12.3125 C37.9375 9.0125 37.9375 5.7125 37.9375 2.3125 C51.7975 2.3125 65.6575 2.3125 79.9375 2.3125 C79.98275927 19.55941377 80.01955437 36.80627635 80.04112434 54.05323315 C80.05140872 62.06244734 80.06541434 70.07162184 80.08837891 78.08081055 C80.10840017 85.06685185 80.12123704 92.05286438 80.12567699 99.03893358 C80.12826967 102.73324385 80.13430342 106.42747186 80.14896011 110.1217556 C80.16524225 114.25983606 80.16547413 118.39777622 80.16455078 122.53588867 C80.17174133 123.74214905 80.17893188 124.94840942 80.18634033 126.19122314 C80.13259546 148.58127801 74.84858829 169.61216629 58.71484375 185.7265625 C41.09950815 202.1279017 19.58815214 205.13712142 -3.55078125 204.66796875 C-14.66229856 204.22402092 -25.22332922 201.61337651 -35.0625 196.3125 C-35.85785156 195.89355469 -36.65320312 195.47460938 -37.47265625 195.04296875 C-48.23545063 189.00449215 -57.96093861 180.15100622 -64.0625 169.3125 C-64.1640625 167.1796875 -64.1640625 167.1796875 -63.0625 165.3125 C-60.60546875 163.55859375 -60.60546875 163.55859375 -57.25 161.75 C-56.64631592 161.42064453 -56.04263184 161.09128906 -55.4206543 160.75195312 C-54.06791355 160.01449286 -52.71233524 159.28222216 -51.35449219 158.55419922 C-48.81673326 157.17935453 -46.30261737 155.76624662 -43.7890625 154.34765625 C-41.98460885 153.33552047 -40.1799228 152.32379891 -38.375 151.3125 C-37.50190186 150.81935303 -36.62880371 150.32620605 -35.72924805 149.81811523 C-34.907229 149.36251221 -34.08520996 148.90690918 -33.23828125 148.4375 C-32.50520752 148.02757812 -31.77213379 147.61765625 -31.0168457 147.1953125 C-29.0625 146.3125 -29.0625 146.3125 -26.0625 146.3125 C-24.703125 148.0703125 -24.703125 148.0703125 -23.3125 150.4375 C-17.98199213 158.73953794 -11.77807308 163.11180391 -2.0625 165.3125 C8.52052237 166.30972237 17.58304093 165.06803074 26.60546875 159.31640625 C34.84126684 152.23941393 36.35345021 140.48376705 37.9375 130.3125 C37.08027344 130.92738281 36.22304687 131.54226563 35.33984375 132.17578125 C34.18513534 132.99252622 33.03017378 133.80891337 31.875 134.625 C31.31361328 135.02912109 30.75222656 135.43324219 30.17382812 135.84960938 C21.09189886 142.23290823 11.77526856 144.70381214 0.8125 144.625 C-0.01644775 144.61936035 -0.84539551 144.6137207 -1.69946289 144.60791016 C-19.83888033 144.25446535 -35.4396834 137.53319105 -48.5390625 124.9296875 C-64.69728676 107.69064556 -68.79149535 88.08761281 -68.19433594 65.12646484 C-67.50228043 50.35492443 -61.90798328 37.06146253 -53.0625 25.3125 C-52.58683594 24.66023437 -52.11117188 24.00796875 -51.62109375 23.3359375 C-38.78770669 7.18967108 -19.98405177 0.16212048 0 0 Z " fill="#030303" transform="translate(1931.0625,549.6875)"/>
<path d="M0 0 C2.00593037 0.00850795 4.00899723 -0.02035702 6.01464844 -0.05200195 C17.82051375 -0.04618052 28.18332075 2.71492918 38.70214844 8.00854492 C39.36915771 8.34370117 40.03616699 8.67885742 40.72338867 9.02416992 C47.75759958 12.75286538 53.14876687 17.75273454 58.63964844 23.44604492 C59.30351563 24.07897461 59.96738281 24.7119043 60.65136719 25.36401367 C73.81165998 38.760896 78.25655685 58.37991888 78.11499023 76.47241211 C77.86310719 85.30150246 76.5026616 93.08303279 73.63964844 101.44604492 C73.28902344 102.50823242 72.93839844 103.57041992 72.57714844 104.66479492 C65.88840028 122.68725522 51.42781774 135.78035326 34.45605469 143.98510742 C23.91077369 148.57935723 14.67544403 149.77206897 3.20214844 149.69604492 C2.03876953 149.7037793 0.87539062 149.71151367 -0.32324219 149.71948242 C-21.28004822 149.67230897 -39.48100139 142.19496953 -54.50097656 127.51635742 C-70.78337856 110.6563334 -74.05463026 89.40548685 -73.76269531 66.83666992 C-73.17920844 50.48242566 -66.11916109 35.70037361 -55.36035156 23.44604492 C-54.70035156 23.44604492 -54.04035156 23.44604492 -53.36035156 23.44604492 C-53.16054687 22.8865918 -52.96074219 22.32713867 -52.75488281 21.75073242 C-50.80992802 18.53638136 -48.07438645 16.68633007 -45.04785156 14.57104492 C-44.42483154 14.13268311 -43.80181152 13.69432129 -43.15991211 13.24267578 C-29.75961512 4.06139839 -16.18851235 -0.104277 0 0 Z " fill="#030303" transform="translate(1617.3603515625,549.553955078125)"/>
<path d="M0 0 C3.57031798 2.79567319 6.81210646 5.77866702 10 9 C10.69609375 9.66257812 11.3921875 10.32515625 12.109375 11.0078125 C18.60060236 17.62483884 22.38936804 25.57171765 26 34 C26.45890625 35.06605469 26.9178125 36.13210938 27.390625 37.23046875 C34.28819602 56.78168237 30.76305881 79.02705884 22.4296875 97.4765625 C18.20236674 105.37981435 12.27505482 111.69672154 6 118 C5.15888672 118.89332031 5.15888672 118.89332031 4.30078125 119.8046875 C-10.91712126 134.58322799 -32.68606647 136.42548252 -52.58984375 136.203125 C-70.96094742 135.76767754 -86.67640704 128.62346785 -100 116 C-101.18335937 114.89591797 -101.18335937 114.89591797 -102.390625 113.76953125 C-116.0846936 99.86585956 -121.32632179 81.11689937 -121.5 62.0625 C-121.31199979 41.42507029 -115.70771937 23.54629151 -100.9296875 8.72265625 C-73.17055536 -17.07483055 -31.66022051 -21.7737576 0 0 Z " fill="#030303" transform="translate(2563,563)"/>
<path d="M0 0 C14.52 0 29.04 0 44 0 C44.33 18.81 44.66 37.62 45 57 C47.97 54.69 50.94 52.38 54 50 C66.01648739 42.90830252 80.61374013 40.64774035 94.2265625 43.9140625 C108.42051652 47.8246586 121.10584089 55.11920184 128.875 67.9375 C134.76566396 78.76652658 137.32588896 89.82980549 137.22705078 102.10961914 C137.22734283 103.07653687 137.22763489 104.04345459 137.22793579 105.03967285 C137.22655321 108.20492837 137.21104278 111.36994234 137.1953125 114.53515625 C137.19157856 116.74189628 137.18873339 118.94863797 137.18673706 121.15538025 C137.17913063 126.94050743 137.15950797 132.7255329 137.1373291 138.51062012 C137.11319255 145.46409758 137.10407545 152.4176092 137.09242249 159.37111664 C137.07308176 169.91414833 137.0347382 180.45695718 137 191 C122.81 191 108.62 191 94 191 C93.95101563 184.7403125 93.90203125 178.480625 93.8515625 172.03125 C93.81616233 168.05727585 93.78019439 164.08332299 93.7421875 160.109375 C93.68196226 153.80667221 93.62379944 147.5039991 93.578125 141.20117188 C93.54115494 136.1176911 93.49476341 131.03437439 93.44193649 125.95103455 C93.42345472 124.01507963 93.408324 122.07908963 93.39665604 120.14308167 C93.37968685 117.42399421 93.35062671 114.70527743 93.31884766 111.98632812 C93.31668747 111.19222534 93.31452728 110.39812256 93.31230164 109.57995605 C93.18523554 101.02680879 91.30657531 93.83790133 86 87 C80.14568066 81.6902685 75.50321504 81.48653651 67.7734375 81.6640625 C62.60308156 82.12436334 59.73653903 83.48628211 56 87 C55.37609375 87.56976562 54.7521875 88.13953125 54.109375 88.7265625 C43.88762031 99.16305993 44.39684176 112.02163891 44.390625 125.66796875 C44.37562136 127.5579824 44.35888968 129.44798304 44.34051514 131.33796692 C44.29707445 136.27801156 44.27689448 141.21787939 44.26177979 146.15808105 C44.24212425 151.21291457 44.20016405 156.26755947 44.16015625 161.32226562 C44.0851067 171.21478524 44.03466281 181.10726212 44 191 C37.8944529 191.02464513 31.78893449 191.04283371 25.68334961 191.05493164 C23.60456844 191.05997288 21.52579084 191.06680574 19.44702148 191.07543945 C16.46597414 191.08751422 13.48497351 191.09323024 10.50390625 191.09765625 C9.10078941 191.10539818 9.10078941 191.10539818 7.66932678 191.11329651 C6.37810158 191.11340981 6.37810158 191.11340981 5.06079102 191.11352539 C4.29912125 191.115746 3.53745148 191.11796661 2.75270081 191.12025452 C1 191 1 191 0 190 C-0.09769877 187.54629379 -0.12996241 185.1207683 -0.12025452 182.66661072 C-0.12110894 181.88988134 -0.12196337 181.11315197 -0.12284368 180.31288534 C-0.12450084 177.69025678 -0.11897329 175.0676911 -0.11352539 172.44506836 C-0.11324354 170.57302349 -0.1134012 168.70097852 -0.1139679 166.82893372 C-0.11425597 161.7299724 -0.10835769 156.63103438 -0.10139394 151.5320785 C-0.09516199 146.20958367 -0.09455673 140.88708837 -0.09336853 135.56459045 C-0.09025474 125.47815109 -0.08204072 115.39172251 -0.07201904 105.3052879 C-0.06085937 93.82543621 -0.05534782 82.34558402 -0.05032361 70.86572826 C-0.03985814 47.24381148 -0.02151207 23.62190948 0 0 Z " fill="#050505" transform="translate(1390,506)"/>
<path d="M0 0 C14.19 0 28.38 0 43 0 C43 18.48 43 36.96 43 56 C47.29 53.03 51.58 50.06 56 47 C70.43349642 40.85007544 86.0384585 39.26440223 101 45 C114.68191751 51.0318131 124.69514506 59.28358686 131 73 C134.57593684 82.61578139 136.15451707 91.47514033 136.11352539 101.67724609 C136.11367142 102.63397217 136.11381744 103.59069824 136.1139679 104.57641602 C136.11327357 107.72544658 136.10550369 110.87441732 136.09765625 114.0234375 C136.09579036 116.21204598 136.09436727 118.40065487 136.09336853 120.58926392 C136.08955679 126.3398759 136.07973798 132.09046248 136.06866455 137.84106445 C136.05661951 144.7460935 136.05204179 151.65113105 136.04621124 158.5561676 C136.03652551 169.03746271 136.01735953 179.51870214 136 190 C121.81 190 107.62 190 93 190 C92.98582031 183.64234375 92.97164062 177.2846875 92.95703125 170.734375 C92.93695538 166.68744545 92.91542014 162.64062756 92.88867188 158.59375 C92.84642769 152.18159668 92.80935531 145.76972666 92.80444336 139.35742188 C92.80013978 134.18297203 92.7715069 129.00915834 92.72656822 123.83490753 C92.71365884 121.86877407 92.70926206 119.90256423 92.71384621 117.93639374 C92.98611515 100.73672517 92.98611515 100.73672517 85.09846497 85.93109131 C80.28603724 81.56966551 76.68689765 80.77401744 70.25 80.6875 C69.54617187 80.65849609 68.84234375 80.62949219 68.1171875 80.59960938 C61.72321404 80.52235877 58.43373538 83.0530117 53.5 87 C46.71772971 95.13872434 43.87317841 103.68375023 43.79467773 114.07324219 C43.78477814 114.88337265 43.77487854 115.69350311 43.76467896 116.52818298 C43.73313785 119.20105078 43.70833577 121.87393634 43.68359375 124.546875 C43.66301784 126.40204322 43.6420212 128.25720683 43.62062073 130.11236572 C43.56546584 134.99164077 43.51602754 139.87095766 43.46777344 144.75030518 C43.40867082 150.60658845 43.34247908 156.46279535 43.27747345 162.3190155 C43.17954676 171.2126303 43.09063403 180.10629442 43 189 C28.81 189 14.62 189 0 189 C0 126.63 0 64.26 0 0 Z " fill="#030403" transform="translate(2035,507)"/>
<path d="M0 0 C1.23298828 -0.01160156 2.46597656 -0.02320313 3.73632812 -0.03515625 C23.50563053 0.02750398 38.7536027 7.65214202 52.70703125 21.50390625 C68.59099369 39.51826207 71.05537442 61.20553119 70.72363281 84.17285156 C70.5625 86.375 70.5625 86.375 69.5625 87.375 C66.48795239 87.47032328 63.43590842 87.5005138 60.36108398 87.48852539 C58.91245972 87.48874443 58.91245972 87.48874443 57.43457031 87.4889679 C54.22588901 87.48826834 51.01726497 87.48047397 47.80859375 87.47265625 C45.59041882 87.47079222 43.37224348 87.46936825 41.15406799 87.46836853 C35.30309929 87.46454216 29.45215523 87.45471086 23.60119629 87.44366455 C17.63582696 87.43345299 11.67045367 87.42887146 5.70507812 87.42382812 C-6.00912544 87.41308869 -17.72331067 87.39601085 -29.4375 87.375 C-28.83304458 89.11935588 -28.2208423 90.86102834 -27.60546875 92.6015625 C-27.09536255 94.0568335 -27.09536255 94.0568335 -26.57495117 95.54150391 C-23.66802575 102.78292404 -19.45204447 106.91133225 -12.5859375 110.46484375 C-4.47018826 113.90297025 6.959307 113.79815833 15.1875 110.6875 C23.38262421 106.72698011 27.29261519 101.17283928 31.5625 93.375 C35.58310742 94.00672404 38.8546091 95.29014979 42.52734375 97.02734375 C43.65720703 97.55650391 44.78707031 98.08566406 45.95117188 98.63085938 C47.12228516 99.18580078 48.29339844 99.74074219 49.5 100.3125 C51.82021861 101.40790967 54.14179086 102.50045769 56.46484375 103.58984375 C57.49085693 104.07573975 58.51687012 104.56163574 59.57397461 105.06225586 C62.52771261 106.35971924 65.48732281 107.40517391 68.5625 108.375 C66.6858501 120.43917794 54.19040367 130.96095875 45.15234375 138.34375 C28.16577403 150.31573731 7.67049267 151.27492432 -12.4375 149.375 C-29.37710856 146.39114234 -45.5194328 139.2532474 -56.4375 125.375 C-56.4375 124.715 -56.4375 124.055 -56.4375 123.375 C-57.0975 123.375 -57.7575 123.375 -58.4375 123.375 C-71.19058187 103.24196212 -76.98749234 80.98003199 -72.19140625 57.234375 C-68.28385069 42.41400884 -62.13576049 31.2826881 -51.4375 20.375 C-50.32955078 19.21291016 -50.32955078 19.21291016 -49.19921875 18.02734375 C-44.41943361 13.34395764 -39.42842943 10.00724533 -33.5 7 C-32.86827881 6.67821777 -32.23655762 6.35643555 -31.58569336 6.02490234 C-21.22577267 1.05707934 -11.413498 -0.1070573 0 0 Z " fill="#030303" transform="translate(2944.4375,549.625)"/>
<path d="M0 0 C14.19 0 28.38 0 43 0 C43.04898437 6.10371094 43.09796875 12.20742188 43.1484375 18.49609375 C43.18384366 22.37436504 43.21981501 26.25261472 43.2578125 30.13085938 C43.31800417 36.27983426 43.37615905 42.42877909 43.421875 48.57788086 C43.45888401 53.53817481 43.50528556 58.49830187 43.55806351 63.45845222 C43.57652475 65.34613159 43.59166287 67.23384662 43.60334396 69.12158012 C43.62034877 71.7758055 43.64941653 74.4296555 43.68115234 77.08374023 C43.68331253 77.85554626 43.68547272 78.62735229 43.68769836 79.42254639 C43.82208574 88.2824749 45.42369309 95.95792099 51 103 C56.88426512 108.33689162 61.46826449 108.42778452 69.21875 108.27734375 C75.70637919 107.80149491 79.12681776 105.78803759 83.75 101.375 C89.62736242 93.57161003 91.13321423 84.31162023 91.20532227 74.81323242 C91.21522186 74.00295593 91.22512146 73.19267944 91.23532104 72.35784912 C91.26680619 69.69041831 91.29164193 67.02296971 91.31640625 64.35546875 C91.336987 62.50172982 91.35798377 60.64799546 91.37937927 58.79426575 C91.43448417 53.92322503 91.48394439 49.05214276 91.53222656 44.18103027 C91.5913752 38.33223187 91.65753927 32.48350913 91.72252655 26.63477325 C91.82039029 17.75656184 91.90934605 8.87830115 92 0 C106.19 0 120.38 0 135 0 C135 47.52 135 95.04 135 144 C121.47 144 107.94 144 94 144 C93.67 141.36 93.34 138.72 93 136 C92.12859375 136.54269531 91.2571875 137.08539062 90.359375 137.64453125 C74.91254253 147.03991455 57.98301667 149.86697679 40.01171875 146.34375 C26.3201018 142.53961212 15.36936203 134.0231238 8.4140625 121.73046875 C0.10253467 105.68141364 -0.28777689 90.74512334 -0.1953125 73.046875 C-0.19157596 70.93410375 -0.18873202 68.82133074 -0.18673706 66.70855713 C-0.1791511 61.18486633 -0.15954659 55.66128301 -0.1373291 50.13763428 C-0.11313644 43.49028239 -0.10406568 36.8428943 -0.09242249 30.19551086 C-0.07311873 20.13026614 -0.03476106 10.06525661 0 0 Z " fill="#030403" transform="translate(1711,552)"/>
<path d="M0 0 C44.22 0 88.44 0 134 0 C134 8.25 134 16.5 134 25 C104.3 25 74.6 25 44 25 C44 38.53 44 52.06 44 66 C69.74 66 95.48 66 122 66 C122 79.2 122 92.4 122 106 C96.26 106 70.52 106 44 106 C44 131.74 44 157.48 44 184 C29.48 184 14.96 184 0 184 C0 123.28 0 62.56 0 0 Z " fill="#040404" transform="translate(2306,512)"/>
<path d="M0 0 C51.48 0 102.96 0 156 0 C156 8.25 156 16.5 156 25 C137.52 25 119.04 25 100 25 C100 77.8 100 130.6 100 185 C85.48 185 70.96 185 56 185 C55 184 55 184 54.87695217 181.39379025 C54.87833486 179.63639192 54.87833486 179.63639192 54.87974548 177.8434906 C54.87889106 177.19335135 54.87803663 176.5432121 54.87715632 175.87337166 C54.87549974 173.6791442 54.88102575 171.48499198 54.88647461 169.29077148 C54.88675647 167.72414146 54.88659877 166.1575113 54.8860321 164.59088135 C54.88574408 160.32453623 54.89164157 156.05821898 54.89860606 151.79188037 C54.90483882 147.33822949 54.90544334 142.88457803 54.90663147 138.43092346 C54.90974502 129.99132557 54.91795872 121.55174056 54.92798096 113.11214834 C54.93914137 103.50650556 54.94465236 93.90086218 54.94967639 84.29521453 C54.96014132 64.53013422 54.97848709 44.76507159 55 25 C36.85 25 18.7 25 0 25 C0 16.75 0 8.5 0 0 Z " fill="#070707" transform="translate(1223,512)"/>
<path d="M0 0 C14.19 0 28.38 0 43 0 C43 9.9 43 19.8 43 30 C54.22 30 65.44 30 77 30 C77 42.54 77 55.08 77 68 C65.78 68 54.56 68 43 68 C43.06773679 75.28754437 43.13829621 82.57413136 43.2355423 89.8611908 C43.28004201 93.25525623 43.31950926 96.64920282 43.34643555 100.04345703 C43.38008992 103.94593252 43.43241401 107.84778692 43.48828125 111.75 C43.49467117 112.95551514 43.5010611 114.16103027 43.50764465 115.40307617 C43.62125485 121.94952051 44.09560733 127.08840047 47 133 C50.91615612 136.64627439 54.02347158 137.46110694 59.1796875 137.40039062 C59.90414062 137.37138672 60.62859375 137.34238281 61.375 137.3125 C62.45007812 137.29799805 62.45007812 137.29799805 63.546875 137.28320312 C68.42054715 137.18203484 73.17345884 136.6700503 78 136 C78.43035641 140.32302166 78.85750445 144.64634494 79.28173828 148.9699707 C79.42637348 150.43945789 79.57187076 151.90886051 79.71826172 153.37817383 C79.92905092 155.49538645 80.13669392 157.61288818 80.34375 159.73046875 C80.53227539 161.63928833 80.53227539 161.63928833 80.72460938 163.58666992 C80.95281311 166.41514196 81.05683249 169.1654796 81 172 C63.70620985 178.34105639 44.47707657 179.33664783 27.01171875 172.8984375 C15.95008914 167.6949395 8.43902206 159.10346841 3.94189453 147.73706055 C-1.395286 132.22769535 -0.36190891 115.78636359 -0.20599365 99.62408447 C-0.17487733 96.05022554 -0.16151307 92.47630012 -0.14648438 88.90234375 C-0.1146544 81.93471965 -0.06205 74.96742002 0 68 C-7.92 68 -15.84 68 -24 68 C-24 55.46 -24 42.92 -24 30 C-16.08 30 -8.16 30 0 30 C0 20.1 0 10.2 0 0 Z " fill="#030404" transform="translate(2206,522)"/>
<path d="M0 0 C2.26758742 3.40138113 3.3576885 6.84621598 4.625 10.6875 C12.35897452 33.22465339 24.63394764 54.82044 45 68 C45.69448242 68.46317627 46.38896484 68.92635254 47.10449219 69.40356445 C53.8536978 73.71525271 60.76759201 76.2696747 68.375 78.6875 C69.51710938 79.06455078 70.65921875 79.44160156 71.8359375 79.83007812 C78.35574642 81.95272046 84.87282702 83.78666278 91.56103516 85.30004883 C94 86 94 86 97 88 C96.32646484 88.18062988 95.65292969 88.36125977 94.95898438 88.54736328 C62.19582755 97.38582225 35.29375954 107.19806064 17.32421875 137.859375 C8.86074375 153.69285277 5.11603646 171.67558931 1 189 C-0.85891344 185.46166758 -1.74213622 182.16100403 -2.625 178.25 C-7.36304916 158.53682985 -13.37459452 138.31102205 -26.75 122.63671875 C-28 121 -28 121 -28 119 C-29.98 118.01 -29.98 118.01 -32 117 C-32 116.34 -32 115.68 -32 115 C-32.51820313 114.76796875 -33.03640625 114.5359375 -33.5703125 114.296875 C-36.17913512 112.90438447 -38.55181758 111.26789057 -40.97167969 109.57299805 C-53.68904524 100.7331566 -66.68958791 96.20961574 -81.60302734 92.58349609 C-83.99501115 92.00121444 -86.38263533 91.40355269 -88.76953125 90.80078125 C-92.5105149 89.85684008 -96.25424389 88.92481427 -100 88 C-99.505 87.01 -99.505 87.01 -99 86 C-96.30524143 85.47559816 -93.65412338 85.05741846 -90.9375 84.6875 C-71.57827138 81.72690297 -52.71870638 74.85231887 -37 63 C-35.81857422 62.11248047 -35.81857422 62.11248047 -34.61328125 61.20703125 C-16.89461248 46.70431633 -5.79232809 21.5942056 0 0 Z " fill="#030303" transform="translate(783,520)"/>
<path d="M0 0 C49.5 0 99 0 150 0 C150 30.03 150 60.06 150 91 C139.80315778 90.15026315 130.76349711 88.60373667 121 86 C120.236875 85.79777832 119.47375 85.59555664 118.6875 85.38720703 C82.12167218 75.50681564 47.94183559 58.91017191 21 32 C20.39551025 31.41162354 19.79102051 30.82324707 19.16821289 30.21704102 C11.55632619 22.75899115 4.5576071 13.68491509 0 4 C0 2.68 0 1.36 0 0 Z " fill="#FDFDFD" transform="translate(462,579)"/>
<path d="M0 0 C-0.8983466 10.47283008 -2.24573233 20.84363798 -5 31 C-5.37804552 32.49923533 -5.75308213 33.99923283 -6.125 35.5 C-6.41375 36.655 -6.7025 37.81 -7 39 C-7.60585937 38.855625 -8.21171875 38.71125 -8.8359375 38.5625 C-20.16168255 36.05341187 -29.71422925 36.30963163 -40.15234375 41.8203125 C-46.16095512 45.65667748 -49.53052125 52.52480198 -52 59 C-54.17949118 69.12260316 -54.33384795 79.37662695 -54.4140625 89.6796875 C-54.4328292 91.22910529 -54.45240642 92.77851346 -54.4727478 94.32791138 C-54.5234952 98.35543062 -54.56342309 102.3829828 -54.60089111 106.41064453 C-54.64843234 111.27020055 -54.70977772 116.12960062 -54.76873779 120.98902893 C-54.85624788 128.32595432 -54.92651257 135.66286056 -55 143 C-69.19 143 -83.38 143 -98 143 C-98 95.15 -98 47.3 -98 -2 C-83.81 -2 -69.62 -2 -55 -2 C-54.505 3.445 -54.505 3.445 -54 9 C-53.41734375 8.48050781 -52.8346875 7.96101562 -52.234375 7.42578125 C-37.70408718 -4.93410194 -17.62090854 -9.2437553 0 0 Z " fill="#040404" transform="translate(2708,554)"/>
<path d="M0 0 C7.0128773 4.65585215 11.0077837 9.74653514 14.8828125 17.25 C15.22570313 17.89839844 15.56859375 18.54679688 15.921875 19.21484375 C20.48111855 29.29205029 18.12983702 42.11683291 14.8828125 52.25 C10.99076025 60.43422201 4.26305736 67.23827249 -4.17456055 70.66552734 C-7.61698303 71.70123922 -10.98417454 71.69526054 -14.5546875 71.625 C-15.3075 71.61339844 -16.0603125 71.60179687 -16.8359375 71.58984375 C-25.96286142 71.32000426 -31.28365697 68.93901659 -38.00390625 62.625 C-46.51560607 53.059171 -48.61887925 42.43429359 -48.43359375 30.0078125 C-47.6101541 20.22819589 -43.09591298 10.69450096 -35.8671875 4 C-25.90936537 -3.77092303 -11.50728916 -6.30056897 0 0 Z " fill="#FBFBFA" transform="translate(1634.1171875,589.75)"/>
<path d="M0 0 C8.51322521 6.14771836 15.12636677 14.39603319 17 25 C17.93653861 37.63559464 16.41072016 49.51762242 8.7734375 60.0625 C3.62219424 65.69028999 -3.39880752 69.88795286 -11.07421875 70.37109375 C-21.44910714 70.65037453 -29.1707522 70.17702427 -37.234375 63.015625 C-46.36342412 53.6200343 -48.3209929 42.93175724 -48.31030273 30.35180664 C-48.1180647 19.29129153 -45.11320826 12.18259143 -37.37890625 4.16796875 C-27.17865171 -5.12782972 -12.0384776 -8.06206576 0 0 Z " fill="#FBFBFB" transform="translate(2533,591)"/>
<path d="M0 0 C8.0766719 6.04496251 11.87281578 13.61844733 15 23 C16.08400197 35.35762243 14.35088308 45.98849657 6.4375 56 C-0.32335339 62.84914812 -8.15019801 65.25212686 -17.625 65.625 C-26.79421965 65.25972976 -32.83911571 62.51181966 -39.3125 56.0625 C-46.47875115 47.26821613 -48.90261482 36.79348502 -48.484375 25.6171875 C-47.32132583 16.93183644 -43.6467706 8.83542771 -37 3 C-25.96004898 -5.4264116 -12.28555373 -6.72434154 0 0 Z " fill="#FBFBFA" transform="translate(1954,590)"/>
<path d="M0 0 C8.21517082 4.57192115 12.87367961 11.44361692 16.3984375 20.0703125 C17.39175981 23.79641554 17.54991987 27.29882217 17.49609375 31.125 C17.48267944 32.1927063 17.48267944 32.1927063 17.46899414 33.28198242 C17.24806558 43.26039817 14.57866567 50.39425263 8.24609375 58.25 C1.44971471 64.18503239 -5.62291781 66.64630838 -14.62890625 66.625 C-15.33635986 66.62338867 -16.04381348 66.62177734 -16.77270508 66.62011719 C-22.37084155 66.48847225 -26.26291534 65.53497033 -30.75390625 62.25 C-31.62015625 61.71375 -32.48640625 61.1775 -33.37890625 60.625 C-41.02167481 52.98223144 -44.80120228 42.92768766 -45.12890625 32.25 C-44.79852545 21.91568862 -41.53041297 14.08153172 -34.75390625 6.25 C-24.7546653 -3.08131523 -12.64219646 -5.82552413 0 0 Z " fill="#FAFAFA" transform="translate(2794.75390625,588.75)"/>
<path d="M0 0 C5.3612367 3.73580313 9.32005551 8.37383816 11.33203125 14.625 C12.27216076 21.71060768 11.78223739 27.57790061 7.890625 33.65234375 C4.13868983 38.40103363 0.12831498 41.74142183 -5.66796875 43.625 C-13.6333651 44.47098003 -21.13837788 44.15917675 -27.60546875 39.11328125 C-33.65318363 33.50654558 -35.79124914 28.45715934 -36.23046875 20.3125 C-36.05700559 13.46070502 -34.09200605 8.8251842 -29.66796875 3.625 C-20.81296219 -4.60860259 -10.50005886 -5.82050507 0 0 Z " fill="#050505" transform="translate(491.66796875,354.375)"/>
<path d="M0 0 C5.20388077 3.40322999 8.8473111 8.3608104 12.2578125 13.4765625 C12.2578125 14.7965625 12.2578125 16.1165625 12.2578125 17.4765625 C-5.8921875 17.4765625 -24.0421875 17.4765625 -42.7421875 17.4765625 C-41.37445843 10.63791716 -37.77025227 7.14942646 -32.7421875 2.4765625 C-23.12765285 -3.87796643 -10.5111117 -4.82192913 0 0 Z " fill="#F8F8F8" transform="translate(2958.7421875,586.5234375)"/>
<path d="M0 0 C29.7 0 59.4 0 90 0 C90 0.33 90 0.66 90 1 C46.935 1.495 46.935 1.495 3 2 C3 2.99 3 3.98 3 5 C2.01 5.495 2.01 5.495 1 6 C0.67 4.02 0.34 2.04 0 0 Z " fill="#E1E2E1" transform="translate(2915,637)"/>
<path d="M0 0 C-1.32 2.31 -2.64 4.62 -4 7 C-3.01 7.33 -2.02 7.66 -1 8 C-7.95660771 7.42978625 -14.31427305 5.98697306 -21 4 C-20.67 3.34 -20.34 2.68 -20 2 C-18.26586914 1.48168945 -18.26586914 1.48168945 -16.03515625 1.11328125 C-14.83536133 0.9131543 -14.83536133 0.9131543 -13.61132812 0.70898438 C-12.3496582 0.51272461 -12.3496582 0.51272461 -11.0625 0.3125 C-10.22525391 0.17005859 -9.38800781 0.02761719 -8.52539062 -0.11914062 C-2.26345935 -1.13172967 -2.26345935 -1.13172967 0 0 Z " fill="#222222" transform="translate(704,604)"/>
<path d="M0 0 C1.35949488 4.07848463 0.14486103 7.17680945 -0.9375 11.1875 C-1.13279297 11.93708984 -1.32808594 12.68667969 -1.52929688 13.45898438 C-2.01214375 15.30793459 -2.50510633 17.15423776 -3 19 C-4.93242285 15.65479742 -5.5463853 12.55232518 -6.125 8.75 C-6.29257812 7.67234375 -6.46015625 6.5946875 -6.6328125 5.484375 C-6.75398437 4.66453125 -6.87515625 3.8446875 -7 3 C-6.01 3 -5.02 3 -4 3 C-3.67 2.67 -3.34 2.34 -3 2 C-2.01 2 -1.02 2 0 2 C0 1.34 0 0.68 0 0 Z " fill="#100F0F" transform="translate(787,690)"/>
<path d="M0 0 C0.66 0.99 1.32 1.98 2 3 C1 6 1 6 -1 7 C-1 8.65 -1 10.3 -1 12 C-1.99 12.495 -1.99 12.495 -3 13 C-3.40729228 15.32156597 -3.74438677 17.6568787 -4 20 C-4.33 20 -4.66 20 -5 20 C-5.53298751 12.9379155 -3.82823693 7.46291892 -1 1 C-0.67 0.67 -0.34 0.34 0 0 Z " fill="#D0CFCE" transform="translate(2659,605)"/>
<path d="M0 0 C6.57142857 5 6.57142857 5 8 10 C7.01 10.33 6.02 10.66 5 11 C4 9 3 7 2 5 C1.34 5 0.68 5 0 5 C-0.33 4.01 -0.66 3.02 -1 2 C-0.67 1.34 -0.34 0.68 0 0 Z " fill="#191A18" transform="translate(1509,563)"/>
<path d="M0 0 C2.45823172 3.68734758 3.01242616 6.69699971 4 11 C3.01 10.34 2.02 9.68 1 9 C0.34 8.67 -0.32 8.34 -1 8 C-1.33 8.66 -1.66 9.32 -2 10 C-1.125 2.25 -1.125 2.25 0 0 Z " fill="#2D2D2D" transform="translate(783,520)"/>
<path d="M0 0 C0.99 0.33 1.98 0.66 3 1 C3 1.99 3 2.98 3 4 C2.34 4 1.68 4 1 4 C0.773125 4.61875 0.54625 5.2375 0.3125 5.875 C-1 8 -1 8 -6 10 C-4.02 6.7 -2.04 3.4 0 0 Z " fill="#181818" transform="translate(2545,644)"/>
<path d="M0 0 C0.33 0.99 0.66 1.98 1 3 C0.05988318 4.70116376 -0.94895617 6.36504293 -2 8 C-2.33 8.9075 -2.66 9.815 -3 10.75 C-3.33 11.4925 -3.66 12.235 -4 13 C-4.99 13.33 -5.98 13.66 -7 14 C-5.53967505 8.68972746 -3.01679014 4.53669968 0 0 Z " fill="#1F1F1E" transform="translate(884,707)"/>
<path d="M0 0 C2.31 0.33 4.62 0.66 7 1 C7.33 2.65 7.66 4.3 8 6 C1.125 2.25 1.125 2.25 0 0 Z " fill="#191919" transform="translate(1730,686)"/>
<path d="M0 0 C0.33 0 0.66 0 1 0 C1 3.63 1 7.26 1 11 C-0.32 10.34 -1.64 9.68 -3 9 C-3 8.01 -3 7.02 -3 6 C-2.34 5.67 -1.68 5.34 -1 5 C-0.34444881 2.47266765 -0.34444881 2.47266765 0 0 Z " fill="#D8D8D8" transform="translate(2812,552)"/>
<path d="M0 0 C0.99 1.32 1.98 2.64 3 4 C2.2884375 5.051875 2.2884375 5.051875 1.5625 6.125 C-0.08739857 9.16081337 -0.60368464 11.59168786 -1 15 C-1.33 15 -1.66 15 -2 15 C-2.21755666 9.5610835 -2.10428384 5.12919186 0 0 Z " fill="#404040" transform="translate(492,536)"/>
<path d="M0 0 C0 2.97 0 5.94 0 9 C-0.66 8.01 -1.32 7.02 -2 6 C-4.05925139 5.27617533 -4.05925139 5.27617533 -6 5 C-6 4.34 -6 3.68 -6 3 C-1.5 0 -1.5 0 0 0 Z " fill="#D0D0D0" transform="translate(1805,687)"/>
<path d="M0 0 C0.33 0 0.66 0 1 0 C1.33 2.31 1.66 4.62 2 7 C3.32 7 4.64 7 6 7 C4.3545622 8.68762851 2.68711423 10.3540349 1 12 C0.67 12 0.34 12 0 12 C0 8.04 0 4.08 0 0 Z " fill="#EEEEEF" transform="translate(2653,552)"/>
<path d="M0 0 C0.33 0.99 0.66 1.98 1 3 C1.66 3.33 2.32 3.66 3 4 C2.09456151 6.71631546 1.07525194 9.34771188 0 12 C-0.33 12 -0.66 12 -1 12 C-1.14285714 3.42857143 -1.14285714 3.42857143 0 0 Z " fill="#292A2A" transform="translate(871,736)"/>
<path d="M0 0 C0.66 0.33 1.32 0.66 2 1 C1.34 3.97 0.68 6.94 0 10 C-1.88343932 6.23312136 -2.22057835 4.97041037 -2 1 C-1.34 0.67 -0.68 0.34 0 0 Z " fill="#373636" transform="translate(784,699)"/>
<path d="M0 0 C1.98 0.66 3.96 1.32 6 2 C6 2.99 6 3.98 6 5 C0.25 4.25 0.25 4.25 -2 2 C-1.34 1.34 -0.68 0.68 0 0 Z " fill="#E1E1E0" transform="translate(2932,657)"/>
<path d="M0 0 C0 3 0 3 -2.5 5.6875 C-3.325 6.450625 -4.15 7.21375 -5 8 C-5.99 7.34 -6.98 6.68 -8 6 C-5.36 4.02 -2.72 2.04 0 0 Z " fill="#1B1B19" transform="translate(1896,559)"/>
<path d="M0 0 C3.37462715 0.54723683 5.08235 1.0549 8 3 C5.03 3.66 2.06 4.32 -1 5 C-1 4.34 -1 3.68 -1 3 C-0.01 3 0.98 3 2 3 C2 2.34 2 1.68 2 1 C1.34 0.67 0.68 0.34 0 0 Z " fill="#242323" transform="translate(872,605)"/>
<path d="M0 0 C1.65 0 3.3 0 5 0 C3.8553125 0.8971875 3.8553125 0.8971875 2.6875 1.8125 C0.6516425 3.46959332 -1.1978279 5.10297674 -3 7 C-3.66 6.67 -4.32 6.34 -5 6 C-4.67 5.34 -4.34 4.68 -4 4 C-3.34 4 -2.68 4 -2 4 C-2 3.34 -2 2.68 -2 2 C-1.34 2 -0.68 2 0 2 C0 1.34 0 0.68 0 0 Z " fill="#151514" transform="translate(1917,590)"/>
<path d="M0 0 C2.125 0.9375 2.125 0.9375 4 2 C2.3545622 3.68762851 0.68711423 5.3540349 -1 7 C-1.33 7 -1.66 7 -2 7 C-2 5.02 -2 3.04 -2 1 C-1.34 0.67 -0.68 0.34 0 0 Z " fill="#EDEDED" transform="translate(1436,557)"/>
<path d="M0 0 C0.33 0 0.66 0 1 0 C1 1.98 1 3.96 1 6 C1.99 6.33 2.98 6.66 4 7 C4.33 7.99 4.66 8.98 5 10 C4.34 10.66 3.68 11.32 3 12 C0.01485372 7.89542386 -0.2954439 5.02254631 0 0 Z " fill="#1D1D1D" transform="translate(838,455)"/>
<path d="M0 0 C0.66 0.33 1.32 0.66 2 1 C0.35 2.65 -1.3 4.3 -3 6 C-3.99 5.67 -4.98 5.34 -6 5 C-2.25 1.125 -2.25 1.125 0 0 Z " fill="#1A1C1B" transform="translate(910,684)"/>
<path d="M0 0 C-0.66 1.65 -1.32 3.3 -2 5 C-3.65 4.67 -5.3 4.34 -7 4 C-3.17391304 0 -3.17391304 0 0 0 Z " fill="#222222" transform="translate(1880,709)"/>
<path d="M0 0 C1.32 0.66 2.64 1.32 4 2 C-1.75 5 -1.75 5 -4 5 C-4 3.68 -4 2.36 -4 1 C-2.68 1.33 -1.36 1.66 0 2 C0 1.34 0 0.68 0 0 Z " fill="#161615" transform="translate(1792,691)"/>
<path d="M0 0 C1.09054688 0.02320313 2.18109375 0.04640625 3.3046875 0.0703125 C4.40039062 0.08835937 5.49609375 0.10640625 6.625 0.125 C7.46804687 0.14820313 8.31109375 0.17140625 9.1796875 0.1953125 C9.1796875 0.5253125 9.1796875 0.8553125 9.1796875 1.1953125 C6.2096875 1.1953125 3.2396875 1.1953125 0.1796875 1.1953125 C0.1796875 1.8553125 0.1796875 2.5153125 0.1796875 3.1953125 C-1.4703125 2.8653125 -3.1203125 2.5353125 -4.8203125 2.1953125 C-2.8203125 0.1953125 -2.8203125 0.1953125 0 0 Z " fill="#1E1F1D" transform="translate(2774.8203125,654.8046875)"/>
<path d="M0 0 C0.66 0.33 1.32 0.66 2 1 C2 4 2 4 -0.375 6.625 C-3 9 -3 9 -5 10 C-3.66511872 6.40608886 -2.03977277 3.24509304 0 0 Z " fill="#292A2A" transform="translate(2884,580)"/>
<path d="M0 0 C0 0.99 0 1.98 0 3 C-0.99 3.495 -0.99 3.495 -2 4 C-1.34 2.68 -0.68 1.36 0 0 Z M-4 4 C-3.34 4 -2.68 4 -2 4 C-2 4.99 -2 5.98 -2 7 C-2.66 7 -3.32 7 -4 7 C-4 7.66 -4 8.32 -4 9 C-4.99 8.67 -5.98 8.34 -7 8 C-5.625 6 -5.625 6 -4 4 Z " fill="#313130" transform="translate(1566,569)"/>
<path d="M0 0 C0.66 0.33 1.32 0.66 2 1 C1.01 2.485 1.01 2.485 0 4 C-0.99 4 -1.98 4 -3 4 C-3 4.66 -3 5.32 -3 6 C-4.32 5.34 -5.64 4.68 -7 4 C-1.7265625 0.77734375 -1.7265625 0.77734375 0 0 Z " fill="#212221" transform="translate(2719,710)"/>
<path d="M0 0 C0.66 0.33 1.32 0.66 2 1 C1.3125 3.4375 1.3125 3.4375 0 6 C-2.625 6.8125 -2.625 6.8125 -5 7 C-3.35 4.69 -1.7 2.38 0 0 Z " fill="#141413" transform="translate(2807,702)"/>
<path d="M0 0 C0.99 0.33 1.98 0.66 3 1 C2.01 2.485 2.01 2.485 1 4 C-2.625 4.1875 -2.625 4.1875 -6 4 C-4.03617993 2.49440461 -2.21736634 1.10868317 0 0 Z " fill="#212221" transform="translate(1902,696)"/>
<path d="M0 0 C2.31 0 4.62 0 7 0 C7 0.99 7 1.98 7 3 C4.36 2.67 1.72 2.34 -1 2 C-0.67 1.34 -0.34 0.68 0 0 Z " fill="#515050" transform="translate(684,606)"/>
<path d="M0 0 C0.66 0 1.32 0 2 0 C2 0.99 2 1.98 2 3 C3.32 3.33 4.64 3.66 6 4 C5.01 4.99 4.02 5.98 3 7 C0 2.25 0 2.25 0 0 Z " fill="#2C2C2B" transform="translate(2710,715)"/>
<path d="M0 0 C0.33 0.66 0.66 1.32 1 2 C1.66 2 2.32 2 3 2 C2.67 3.32 2.34 4.64 2 6 C0.68 6.33 -0.64 6.66 -2 7 C-1.34 4.69 -0.68 2.38 0 0 Z " fill="#1D1D1D" transform="translate(2878,590)"/>
</svg>
